#!OML:ASF X:\für Bonn\!DataBase\2005_08_12_Daniel\c3d\Daniel.ASF
:FULLY-SPECIFIED
:DEGREES
188
root 13.4734 2.72714 1.00036 -1044.34 -76.2302 -108.148
lowerback 73.9522 -5.52723 11.7906
upperback 15.1207 -3.45991 -1.74384
thorax -3.57733 -3.5111 -5.03396
lowerneck 2.48628 9.23856 -12.4287
upperneck 7.76267 12.1327 -11.1373
head 2.08408 5.13593 -1.45353
rclavicle 4.13472e-014 3.65764e-014
rhumerus -38.7593 -19.6131 -81.4395
rradius 8.56774
rwrist 70.2392
rhand -41.183 -339.27
rfingers 7.12502
rthumb -14.108 -368.771
lclavicle 4.13472e-014 3.65764e-014
lhumerus -750.826 39.6301 -645.929
lradius 18.3823
lwrist -6.21484
lhand -75.0432 287.897
lfingers 7.12502
lthumb -46.3129 310.861
rfemur 277.993 -45.9797 407.941
rtibia 131.575
rfoot 28.3646 19.0032
rtoes 14.6324
lfemur 32.3566 64.1196 66.7024
ltibia 145.096
lfoot 49.6275 -41.1024
ltoes 9.87467
189
root 13.5136 2.66534 1.01827 -1042.12 -76.6408 -110.777
lowerback 73.7012 -5.64729 11.7069
upperback 15.1994 -3.73516 -1.7829
thorax -3.54341 -3.65768 -4.94038
lowerneck 2.09761 9.248 -12.2951
upperneck 7.90211 12.2431 -11.0437
head 2.19834 5.17192 -1.42152
rclavicle 1.47101e-014 4.77083e-015
rhumerus -38.4165 -19.4623 -81.8126
rradius 8.0417
rwrist 69.3836
rhand -44.0759 -338.231
rfingers 7.12502
rthumb -16.8943 -367.516
lclavicle 1.47101e-014 4.77083e-015
lhumerus -751.357 39.3666 -645.734
lradius 18.731
lwrist -4.91916
lhand -74.9439 291.161
lfingers 7.12502
lthumb -46.2209 314.163
rfemur 278.384 -45.2075 408.029
rtibia 130.836
rfoot 28.6793 17.5803
rtoes 14.2873
lfemur 33.5675 64.6376 68.095
ltibia 145.154
lfoot 49.6798 -40.101
ltoes 9.70863
190
root 13.554 2.60419 1.03509 -1039.79 -77.0494 -113.495
lowerback 73.4474 -5.74971 11.6028
upperback 15.2705 -4.00452 -1.83715
thorax -3.52085 -3.79969 -4.85815
lowerneck 1.71692 9.25187 -12.1173
upperneck 8.03937 12.3447 -10.9365
head 2.31263 5.20696 -1.3917
rclavicle -2.94201e-014 -2.06736e-014
rhumerus -37.9783 -19.301 -82.1892
rradius 7.27059
rwrist 68.7144
rhand -47.4767 -336.77
rfingers 7.12502
rthumb -20.1655 -365.744
lclavicle -2.94201e-014 -2.06736e-014
lhumerus -751.819 38.8517 -645.435
lradius 19.1131
lwrist -3.39101
lhand -74.9167 293.996
lfingers 7.12502
lthumb -46.1957 317.009
rfemur 278.853 -44.429 408.061
rtibia 130
rfoot 29.0494 16.46
rtoes 13.4613
lfemur 34.861 65.1492 69.5432
ltibia 145.205
lfoot 49.7392 -39.0815
ltoes 9.68383
191
root 13.5931 2.54291 1.04978 -1037.49 -77.4537 -116.177
lowerback 73.1915 -5.82191 11.4653
upperback 15.3217 -4.25554 -1.89013
thorax -3.52207 -3.93262 -4.76743
lowerneck 1.40156 9.24377 -11.8372
upperneck 8.15001 12.418 -10.8725
head 2.41662 5.23548 -1.39408
rclavicle -1.03368e-014 -4.92986e-014
rhumerus -37.4624 -19.142 -82.5428
rradius 6.28083
rwrist 68.3316
rhand -51.2265 -334.738
rfingers 7.12502
rthumb -23.7659 -363.288
lclavicle -1.03368e-014 -4.92986e-014
lhumerus -752.356 38.5779 -645.286
lradius 19.4951
lwrist -2.16745
lhand -74.8097 297.163
lfingers 7.12502
lthumb -46.0964 320.217
rfemur 279.329 -43.6249 408.053
rtibia 129.09
rfoot 29.5223 15.6251
rtoes 12.2279
lfemur 36.1807 65.6545 70.9764
ltibia 145.25
lfoot 49.835 -37.9803
ltoes 9.77037
192
root 13.6322 2.4804 1.06286 -1035.04 -77.879 -118.968
lowerback 72.9457 -5.83041 11.2732
upperback 15.351 -4.46687 -1.9415
thorax -3.54813 -4.04804 -4.66816
lowerneck 1.151 9.22547 -11.4633
upperneck 8.24288 12.4651 -10.8281
head 2.51103 5.25839 -1.42015
rclavicle 2.54444e-014 3.18055e-014
rhumerus -37.4456 -18.9125 -82.6465
rradius 6.04844
rwrist 68.118
rhand -54.8656 -331.831
rfingers 7.12502
rthumb -27.2516 -359.882
lclavicle 2.54444e-014 3.18055e-014
lhumerus -752.874 38.2194 -645.139
lradius 19.8755
lwrist -0.877817
lhand -74.6641 299.411
lfingers 7.12502
lthumb -45.9613 322.521
rfemur 279.856 -42.6523 407.989
rtibia 128.013
rfoot 30.1771 14.7279
rtoes 11.0106
lfemur 37.6157 66.2098 72.5172
ltibia 145.306
lfoot 49.8413 -36.9477
ltoes 9.69079
193
root 13.6699 2.41401 1.07629 -1032.37 -78.3034 -121.968
lowerback 72.6546 -5.80476 11.0797
upperback 15.3964 -4.64421 -2.00104
thorax -3.55755 -4.1439 -4.59361
lowerneck 1.0746 9.18323 -10.7967
upperneck 8.25681 12.4519 -10.956
head 2.58007 5.26915 -1.55567
rclavicle -2.82274e-014 -2.54444e-014
rhumerus -37.4091 -18.6987 -82.6877
rradius 5.77684
rwrist 68.0046
rhand -58.3465 -327.55
rfingers 7.12502
rthumb -30.5764 -355.031
lclavicle -2.82274e-014 -2.54444e-014
lhumerus -753.382 37.8635 -645.026
lradius 20.2785
lwrist 0.304758
lhand -74.486 301.871
lfingers 7.12502
lthumb -45.7961 325.05
rfemur 280.44 -41.5409 407.911
rtibia 126.752
rfoot 31.0848 13.7278
rtoes 10.444
lfemur 39.2916 66.7736 74.2473
ltibia 145.362
lfoot 49.842 -35.8815
ltoes 9.857
194
root 13.7085 2.34624 1.08827 -1029.58 -78.7477 -125.08
lowerback 72.3116 -5.73235 10.8608
upperback 15.4643 -4.79005 -2.06436
thorax -3.5448 -4.22285 -4.52899
lowerneck 1.18345 9.10707 -9.88816
upperneck 8.18168 12.3626 -11.2248
head 2.61227 5.26022 -1.78595
rclavicle 1.55052e-014 2.54444e-014
rhumerus -37.3314 -18.5149 -82.6801
rradius 5.45991
rwrist 68.1148
rhand -61.4712 -322.219
rfingers 7.12502
rthumb -33.5513 -349.101
lclavicle 1.55052e-014 2.54444e-014
lhumerus -753.787 37.3624 -644.865
lradius 20.6316
lwrist 1.59196
lhand -74.2645 303.93
lfingers 7.12502
lthumb -45.5903 327.193
rfemur 281.077 -40.3914 407.766
rtibia 125.356
rfoot 32.0284 12.6706
rtoes 9.88113
lfemur 41.0967 67.3307 76.0684
ltibia 145.416
lfoot 49.7785 -34.8597
ltoes 9.8608
195
root 13.746 2.27756 1.09863 -1026.62 -79.1968 -128.335
lowerback 71.9103 -5.66207 10.6724
upperback 15.5307 -4.9116 -2.16486
thorax -3.53871 -4.27794 -4.52924
lowerneck 1.48331 8.99888 -8.8675
upperneck 8.07471 12.2013 -11.5013
head 2.60622 5.22896 -2.04964
rclavicle -2.38542e-015 6.36111e-015
rhumerus -37.3177 -18.3996 -82.6067
rradius 5.16665
rwrist 68.33
rhand -64.0829 -315.613
rfingers 7.12502
rthumb -36.0294 -341.922
lclavicle -2.38542e-015 6.36111e-015
lhumerus -754.145 36.5942 -644.637
lradius 21.034
lwrist 3.05787
lhand -74.079 305.002
lfingers 7.12502
lthumb -45.418 328.335
rfemur 281.662 -39.2514 407.634
rtibia 123.906
rfoot 32.9723 11.7932
rtoes 9.39372
lfemur 43.1196 67.9104 78.0539
ltibia 145.467
lfoot 49.6673 -33.8467
ltoes 9.90194
196
root 13.7832 2.20918 1.1085 -1023.52 -79.6393 -131.698
lowerback 71.4474 -5.58783 10.4913
upperback 15.6333 -5.02927 -2.27472
thorax -3.4952 -4.3278 -4.54796
lowerneck 1.69987 8.85755 -8.01288
upperneck 7.99523 12.0079 -11.6459
head 2.60121 5.17607 -2.2439
rclavicle -1.43125e-014 -2.46493e-014
rhumerus -37.2399 -18.2857 -82.4867
rradius 4.90976
rwrist 68.606
rhand -65.9665 -308.309
rfingers 7.12502
rthumb -37.8113 -334.159
lclavicle -1.43125e-014 -2.46493e-014
lhumerus -754.46 36.0008 -644.479
lradius 21.3505
lwrist 4.23459
lhand -73.8314 306.919
lfingers 7.12502
lthumb -45.1878 330.344
rfemur 282.244 -38.1508 407.478
rtibia 122.369
rfoot 33.9353 11.049
rtoes 9.14134
lfemur 45.2643 68.4681 80.108
ltibia 145.499
lfoot 49.5967 -32.7828
ltoes 10.1646
197
root 13.8191 2.14131 1.11614 -1020.38 -80.0877 -135.093
lowerback 70.9874 -5.48246 10.2639
upperback 15.7174 -5.13334 -2.37854
thorax -3.47187 -4.37248 -4.54489
lowerneck 1.93731 8.70863 -7.37206
upperneck 7.92468 11.793 -11.6687
head 2.57037 5.10858 -2.36732
rclavicle 6.36111e-015 3.10104e-014
rhumerus -37.2289 -18.1531 -82.2948
rradius 4.76921
rwrist 68.9307
rhand -67.1981 -301.4
rfingers 7.12502
rthumb -38.9737 -326.927
lclavicle 6.36111e-015 3.10104e-014
lhumerus -754.769 35.3007 -644.269
lradius 21.7464
lwrist 5.55554
lhand -73.6123 308.705
lfingers 7.12502
lthumb -44.984 332.211
rfemur 282.851 -37.0956 407.292
rtibia 120.743
rfoot 34.8392 10.4035
rtoes 9.45461
lfemur 47.4691 68.9945 82.1685
ltibia 145.518
lfoot 49.5708 -31.6718
ltoes 10.3837
198
root 13.8562 2.07555 1.12176 -1017.27 -80.5206 -138.435
lowerback 70.5716 -5.38576 10.0285
upperback 15.7674 -5.23659 -2.4837
thorax -3.48289 -4.41551 -4.53611
lowerneck 2.07557 8.54281 -6.90596
upperneck 7.92183 11.5686 -11.5584
head 2.55726 5.026 -2.41453
rclavicle 7.85199e-015 -1.59028e-015
rhumerus -37.2694 -17.9995 -82.0178
rradius 4.77643
rwrist 69.2794
rhand -67.8476 -295.835
rfingers 7.12502
rthumb -39.5857 -321.184
lclavicle 7.85199e-015 -1.59028e-015
lhumerus -755.076 34.6787 -644.105
lradius 22.1215
lwrist 6.71406
lhand -73.3972 309.748
lfingers 7.12502
lthumb -44.7838 333.333
rfemur 283.518 -36.1469 407.055
rtibia 119.056
rfoot 35.6466 9.76088
rtoes 10.2986
lfemur 49.747 69.5172 84.2506
ltibia 145.521
lfoot 49.4814 -30.6036
ltoes 10.5182
